<svg xmlns="http://www.w3.org/2000/svg" viewBox="0 0 64 64">
  <rect width="64" height="64" rx="16" fill="#4300B8"/>
  <path d="M14 44a4 4 0 0 1-4-4c0-.8.2-1.4.5-2L24 15c3-5.4 9.1-8.8 15.9-8.8 4.4 0 8.5 1.5 11.4 3.9L57 14c1.8 1.3 4.1 2 6.3 2h.7" fill="none"/>
  <path d="M15 43 27 20c2.2-4.2 7.5-5.6 11.4-3.1l11.8 10.1c2.2 1.5 4.8 2.3 7.4 2.3h2.3c1.7 0 3.1 1.4 3.1 3.1s-1.4 3.1-3.1 3.1h-2.3c-4.1 0-8-1.3-11.2-4L34.6 21.4c-1.3-.9-3.1-.4-3.8 1L19.7 43c-.7 1.2-2.1 2-3.5 2-.3 0-.8 0-1.2-.2Z" fill="#27E8DC"/>
  <rect x="46" y="12" width="5" height="5" rx="1.2" fill="#36EDE0"/>
  <rect x="54" y="7" width="5" height="5" rx="1.2" fill="#36EDE0"/>
  <rect x="54" y="19" width="5" height="5" rx="1.2" fill="#36EDE0"/>
</svg>
